<svg width="281" height="281" viewBox="0 0 281 281" fill="none" xmlns="http://www.w3.org/2000/svg">
<rect x="8" y="8" width="265" height="265" rx="38" fill="#FF5539" stroke="#1E1E1E" stroke-width="16"/>
<mask id="mask0_7_91" style="mask-type:alpha" maskUnits="userSpaceOnUse" x="16" y="16" width="249" height="249">
<rect x="23" y="23" width="235" height="235" rx="23" fill="#FF5539" stroke="#062448" stroke-width="14"/>
</mask>
<g mask="url(#mask0_7_91)">
<path d="M37.3383 216.867L114.384 243.265C124.362 246.684 135.324 245.682 144.517 240.511L220.413 197.819C227.383 193.898 232.895 187.825 236.124 180.508L274.454 93.6448C277.235 87.3414 278.202 80.3866 277.244 73.5637L270.842 27.9589C268.438 10.8368 254.497 -2.33774 237.267 -3.77026L214.354 -5.67524C195.093 -7.27658 177.844 6.21639 174.762 25.2964L158.655 124.992C158 129.048 156.27 132.855 153.645 136.016L115.691 181.729C112.252 185.87 107.47 188.674 102.177 189.653L38.4769 201.432C30.3839 202.928 29.5528 214.199 37.3383 216.867Z" fill="#FDFEFF" stroke="#111A19" stroke-width="14"/>
</g>
</svg>

